<?xml version="1.0" encoding="utf-8"?>
<!-- Generator: Adobe Illustrator 17.0.0, SVG Export Plug-In . SVG Version: 6.00 Build 0)  -->
<!DOCTYPE svg PUBLIC "-//W3C//DTD SVG 1.1//EN" "http://www.w3.org/Graphics/SVG/1.1/DTD/svg11.dtd">
<svg version="1.1" id="Layer_1" xmlns="http://www.w3.org/2000/svg" xmlns:xlink="http://www.w3.org/1999/xlink" x="0px" y="0px"
	 width="429.917px" height="486.46px" viewBox="0 0 429.917 486.46" enable-background="new 0 0 429.917 486.46"
	 xml:space="preserve">
<path fill="none" stroke="#FFFFFF" stroke-width="30" stroke-miterlimit="10" d="M414.917,65.102
	c0-17.719-4.164-22.928-17.718-31.269C383.644,25.491,272.613,15,212.155,15C151.688,15,45.916,25.422,32.356,33.763
	C18.807,42.105,15,47.531,15,65.25c0,11.624,0.529,185.642,0.529,200.375c0,9.377,5.112,29.769,5.769,31.725
	c8.341,25.029,52.257,77.149,111.679,123.03c59.422,45.863,74.083,51.08,82.944,51.08c8.857,0,23.489-5.217,82.906-51.08
	c59.422-45.881,102.131-97.932,110.473-122.96c0.657-1.957,5.209-24.609,5.209-33.986
	C414.509,248.712,414.917,76.716,414.917,65.102z"/>
<path fill="#2B2B2B" d="M322.098,175.084c-2.906,1.99-8.533,36.292-12.343,36.014c-3.512-0.256-9.512-29.799-13.188-30.601
	c-2.849-0.622-9.705,18.744-11.441,19.45c-4.952,2.011-36.962-63.877-45.483-62.476c-2.565,0.422-9.945,23.269-14.216,22.693
	c-4.412-0.594-10.13-31.784-14.302-34.806c-5.328-3.86-36.226,55.736-39.287,53.43c-6.91-5.204-7.551-30.628-10.31-33.03
	c-4.422-3.848-56.144,63.492-62.304,61.952c-6.263-1.566-15.46-35.523-18.788-36.533c-8.966-2.72-56.342,35.204-65.073,42.279
	c-0.072,19.602-0.119,37.961-0.119,52.694c0,9.377,4.556,29.313,5.213,31.269c8.341,25.029,52.125,77.149,111.546,123.03
	c59.422,45.863,74.016,51.08,82.878,51.08c8.857,0,23.456-5.217,82.873-51.08c59.422-45.881,103.205-98.001,111.547-123.03
	c0.657-1.957,5.208-21.892,5.208-31.269c0-14.722,0.047-33.064,0.119-52.649C401.567,207.033,328.105,170.971,322.098,175.084z"/>
<path fill="#0C4569" d="M62.277,152.911c10.135-9.262,16.962-14.091,19.31-16.179c4.638-4.123,21.25,12.827,21.25,12.827
	s42.885-43.141,102.44-84.849c15.091-10.568,19.404-16.972,27.661-3.653c10.068,16.239,63.77,95.333,57.129,84.677
	c0,0,21.115-30.123,30.029-25.702c12.007,5.954,52.19,45.405,52.19,45.405l41.933,46.835c0.229-61.84,0.698-135.556,0.698-147.17
	c0-17.719-4.164-22.928-17.718-31.269c-13.555-8.341-121.452-18.763-181.91-18.763c-60.467,0-168.359,10.422-181.919,18.763
	c-13.549,8.341-17.718,13.55-17.718,31.269c0,11.624-0.469,85.46-0.699,147.333C20.602,203.781,42.623,170.871,62.277,152.911z"/>
<path fill="#FFFFFF" d="M80.373,171.178c3.328,1.01,12.526,34.967,18.788,36.533c6.16,1.54,57.881-65.8,62.304-61.952
	c2.759,2.401,3.4,27.826,10.31,33.03c3.062,2.306,33.959-57.29,39.287-53.43c4.172,3.022,9.891,34.212,14.302,34.806
	c4.272,0.575,11.651-22.272,14.216-22.693c8.521-1.401,40.531,64.488,45.483,62.476c1.736-0.705,8.592-20.071,11.441-19.45
	c3.676,0.802,9.676,30.344,13.188,30.601c3.81,0.278,9.438-34.025,12.343-36.014c6.007-4.113,79.469,31.949,92.529,38.417
	c0.002-0.409,0.003-0.819,0.005-1.229l-41.933-46.835c0,0-40.183-39.451-52.19-45.405c-8.913-4.42-30.029,25.702-30.029,25.702
	c6.641,10.656-47.061-68.438-57.129-84.677c-8.257-13.319-12.57-6.915-27.661,3.653c-59.555,41.708-102.44,84.849-102.44,84.849
	s-16.612-16.949-21.25-12.827c-2.349,2.088-9.175,6.917-19.31,16.179c-19.654,17.96-41.676,50.87-47.324,59.523
	c-0.001,0.341-0.003,0.682-0.004,1.022C24.031,206.382,71.407,168.458,80.373,171.178z"/>
<g>
	<path fill="#FFFFFF" d="M106.775,310.459h7.923v-30.73h-7.923v-10.563h21.007v9.483c2.641-4.922,7.803-10.804,17.166-10.804h1.081
		v13.685h-2.161c-7.683,0-12.725,1.561-15.605,3.361v25.568h9.003v10.563h-30.49V310.459z"/>
	<path fill="#FFFFFF" d="M150.711,295.094c0-16.086,9.844-27.249,27.37-27.249s27.369,11.163,27.369,27.249
		c0,16.085-9.843,27.249-27.369,27.249S150.711,311.179,150.711,295.094z M191.405,295.094c0-9.483-4.081-17.046-13.324-17.046
		s-13.325,7.562-13.325,17.046s4.082,17.046,13.325,17.046S191.405,304.577,191.405,295.094z"/>
	<path fill="#FFFFFF" d="M212.414,295.334c0-18.126,11.164-27.489,27.49-27.489c7.442,0,14.404,1.92,18.727,3.48v17.526h-11.284
		v-10.084c-1.921-0.479-3.962-0.72-6.002-0.72c-9.964,0-14.886,6.362-14.886,16.806c0,10.203,4.682,17.046,15.365,17.046
		c6.122,0,11.885-2.281,16.326-4.562v10.684c-4.922,2.761-11.645,4.321-18.486,4.321
		C222.738,322.343,212.414,312.859,212.414,295.334z"/>
	<path fill="#FFFFFF" d="M264.874,310.459h7.923v-63.741h-7.923v-10.564h21.487v74.305h7.203v10.563h-28.69V310.459z
		 M299.566,310.939l-11.044-15.246v-0.359l15.125-16.086h-7.322v-10.083h27.97v10.203h-6.723l-14.524,15.605l6.602,8.763
		c3.602,4.802,6.482,8.163,11.404,8.163c0.96,0,2.04-0.12,3.121-0.36v9.604c-1.801,0.601-3.602,1.08-6.362,1.08
		C309.89,322.223,304.848,318.262,299.566,310.939z"/>
</g>
<g>
	<path fill="#AAAAAA" d="M129.43,343.764h12.833v3.772h-8.596v5.35h7.916v3.772h-7.916v8.751h-4.236V343.764z"/>
	<path fill="#AAAAAA" d="M145.138,343.98c0.474-0.082,0.984-0.159,1.531-0.231c0.546-0.072,1.092-0.129,1.639-0.17
		c0.546-0.041,1.077-0.072,1.592-0.093s0.99-0.031,1.423-0.031c1.01,0,2.004,0.093,2.984,0.278c0.979,0.186,1.855,0.506,2.628,0.959
		s1.392,1.077,1.855,1.87c0.464,0.794,0.696,1.789,0.696,2.984c0,1.773-0.413,3.216-1.237,4.329
		c-0.825,1.113-1.928,1.887-3.309,2.319l1.515,0.959l4.948,8.256h-4.886l-4.917-8.473l-2.227-0.402v8.875h-4.236V343.98z
		 M151.632,347.227c-0.433,0-0.861,0.011-1.283,0.031c-0.423,0.021-0.748,0.062-0.974,0.124v6.276h1.793
		c1.175,0,2.113-0.268,2.814-0.804c0.701-0.536,1.051-1.422,1.051-2.659c0-0.928-0.289-1.654-0.866-2.18
		C153.59,347.489,152.745,347.227,151.632,347.227z"/>
	<path fill="#AAAAAA" d="M173.278,360.616h-6.648l-1.639,4.793h-4.236l7.792-21.801h3.123l7.792,21.801h-4.453L173.278,360.616z
		 M167.712,357.215h4.638l-1.608-4.824l-0.649-3.401h-0.154l-0.649,3.433L167.712,357.215z"/>
	<path fill="#AAAAAA" d="M198.109,354.185l0.463-4.299h-0.185l-1.33,3.464l-4.607,8.07h-1.36l-4.855-8.102l-1.36-3.433h-0.155
		l0.619,4.268v11.256h-4.02v-21.646h3.865l5.782,9.895l1.021,2.475h0.124l0.928-2.536l5.473-9.833h3.834v21.646h-4.236V354.185z"/>
	<path fill="#AAAAAA" d="M206.056,343.764h12.833v3.772h-8.597v5.04h7.823v3.772h-7.823v5.288h8.751v3.772h-12.987V343.764z"/>
	<path fill="#AAAAAA" d="M227.825,355.855l0.401,3.834h0.124l0.433-3.896l3.772-12.028h2.783l3.711,12.091l0.433,3.834h0.124
		l0.464-3.896l2.628-12.028h4.299l-5.969,21.8h-2.845l-3.865-12.028l-0.525-3.309h-0.154l-0.526,3.339l-3.834,11.998h-3l-5.937-21.8
		h4.607L227.825,355.855z"/>
	<path fill="#AAAAAA" d="M247.306,354.586c0-3.607,0.793-6.385,2.381-8.333c1.587-1.948,3.855-2.923,6.804-2.923
		c1.546,0,2.896,0.269,4.051,0.805c1.154,0.536,2.112,1.299,2.876,2.288c0.762,0.989,1.329,2.175,1.7,3.556
		c0.371,1.382,0.557,2.918,0.557,4.607c0,3.608-0.799,6.386-2.396,8.334s-3.86,2.922-6.787,2.922c-1.567,0-2.928-0.268-4.082-0.804
		c-1.155-0.536-2.108-1.299-2.86-2.288c-0.753-0.989-1.314-2.175-1.686-3.557C247.491,357.813,247.306,356.277,247.306,354.586z
		 M251.759,354.586c0,1.094,0.093,2.099,0.278,3.016s0.469,1.706,0.85,2.365c0.382,0.66,0.871,1.175,1.47,1.546
		c0.598,0.371,1.309,0.557,2.134,0.557c1.504,0,2.669-0.587,3.494-1.763c0.824-1.175,1.236-3.081,1.236-5.721
		c0-1.051-0.088-2.03-0.263-2.938c-0.175-0.906-0.448-1.7-0.819-2.381s-0.855-1.211-1.453-1.593
		c-0.599-0.381-1.33-0.571-2.195-0.571c-1.506,0-2.67,0.603-3.494,1.809C252.171,350.118,251.759,352.01,251.759,354.586z"/>
	<path fill="#AAAAAA" d="M268.704,343.98c0.474-0.082,0.984-0.159,1.53-0.231s1.093-0.129,1.64-0.17
		c0.546-0.041,1.076-0.072,1.592-0.093s0.99-0.031,1.423-0.031c1.01,0,2.005,0.093,2.983,0.278c0.979,0.186,1.855,0.506,2.629,0.959
		s1.392,1.077,1.855,1.87c0.464,0.794,0.695,1.789,0.695,2.984c0,1.773-0.412,3.216-1.236,4.329
		c-0.825,1.113-1.928,1.887-3.309,2.319l1.515,0.959l4.947,8.256h-4.886l-4.916-8.473l-2.227-0.402v8.875h-4.236V343.98z
		 M275.197,347.227c-0.433,0-0.86,0.011-1.283,0.031s-0.747,0.062-0.974,0.124v6.276h1.793c1.176,0,2.113-0.268,2.814-0.804
		c0.7-0.536,1.052-1.422,1.052-2.659c0-0.928-0.289-1.654-0.866-2.18C277.156,347.489,276.31,347.227,275.197,347.227z"/>
	<path fill="#AAAAAA" d="M292.669,356.163h-1.113v9.246h-4.236v-21.646h4.236v9.586l0.989-0.434l5.968-9.152h4.824l-6.308,9.091
		l-1.67,1.175l1.731,1.206l7.205,10.174h-5.227L292.669,356.163z"/>
</g>
</svg>
